<mxfile host="app.diagrams.net" modified="2020-06-16T08:17:22.671Z" agent="5.0 (X11; Linux x86_64) AppleWebKit/537.36 (KHTML, like Gecko) Chrome/81.0.4044.129 Safari/537.36" etag="5-EGkQv92JWBq3O7sW5-" version="13.2.4" type="github" pages="2">
  <diagram id="JknG9vX4Ozdbf1XjKwg9" name="Page-1">
    <mxGraphModel dx="1355" dy="725" grid="1" gridSize="10" guides="1" tooltips="1" connect="1" arrows="1" fold="1" page="1" pageScale="1" pageWidth="850" pageHeight="1100" math="0" shadow="0">
      <root>
        <mxCell id="0" />
        <mxCell id="1" parent="0" />
        <mxCell id="oK8UVL9PqHATXcwjrjmi-4" style="edgeStyle=orthogonalEdgeStyle;rounded=0;orthogonalLoop=1;jettySize=auto;html=1;" parent="1" source="oK8UVL9PqHATXcwjrjmi-1" target="oK8UVL9PqHATXcwjrjmi-3" edge="1">
          <mxGeometry relative="1" as="geometry" />
        </mxCell>
        <mxCell id="oK8UVL9PqHATXcwjrjmi-1" value="Pose topic" style="ellipse;whiteSpace=wrap;html=1;aspect=fixed;fillColor=#d5e8d4;strokeColor=#82b366;" parent="1" vertex="1">
          <mxGeometry x="210" y="150" width="80" height="80" as="geometry" />
        </mxCell>
        <mxCell id="oK8UVL9PqHATXcwjrjmi-5" style="edgeStyle=orthogonalEdgeStyle;rounded=0;orthogonalLoop=1;jettySize=auto;html=1;" parent="1" source="oK8UVL9PqHATXcwjrjmi-2" target="oK8UVL9PqHATXcwjrjmi-3" edge="1">
          <mxGeometry relative="1" as="geometry" />
        </mxCell>
        <mxCell id="oK8UVL9PqHATXcwjrjmi-2" value="Image topic" style="ellipse;whiteSpace=wrap;html=1;aspect=fixed;fillColor=#ffe6cc;strokeColor=#d79b00;" parent="1" vertex="1">
          <mxGeometry x="345" y="150" width="80" height="80" as="geometry" />
        </mxCell>
        <mxCell id="oK8UVL9PqHATXcwjrjmi-7" value="" style="edgeStyle=orthogonalEdgeStyle;rounded=0;orthogonalLoop=1;jettySize=auto;html=1;entryX=0.5;entryY=0;entryDx=0;entryDy=0;entryPerimeter=0;" parent="1" source="oK8UVL9PqHATXcwjrjmi-3" target="oK8UVL9PqHATXcwjrjmi-8" edge="1">
          <mxGeometry relative="1" as="geometry">
            <mxPoint x="315" y="420" as="targetPoint" />
          </mxGeometry>
        </mxCell>
        <mxCell id="oK8UVL9PqHATXcwjrjmi-3" value="eval_online" style="rounded=0;whiteSpace=wrap;html=1;" parent="1" vertex="1">
          <mxGeometry x="210" y="300" width="210" height="60" as="geometry" />
        </mxCell>
        <mxCell id="oK8UVL9PqHATXcwjrjmi-8" value="Results" style="shape=card;whiteSpace=wrap;html=1;" parent="1" vertex="1">
          <mxGeometry x="275" y="400" width="80" height="100" as="geometry" />
        </mxCell>
      </root>
    </mxGraphModel>
  </diagram>
  <diagram id="Wkv6C8EIHXLdOeW9tzOi" name="Page-2">
    <mxGraphModel dx="1355" dy="725" grid="1" gridSize="10" guides="1" tooltips="1" connect="1" arrows="1" fold="1" page="1" pageScale="1" pageWidth="850" pageHeight="1100" math="0" shadow="0">
      <root>
        <mxCell id="lPFeyiHdocXZhXI9Fyas-0" />
        <mxCell id="lPFeyiHdocXZhXI9Fyas-1" parent="lPFeyiHdocXZhXI9Fyas-0" />
        <mxCell id="wItr3tb0fCN-MO-YChe2-1" value="" style="shape=image;imageAspect=0;aspect=fixed;verticalLabelPosition=bottom;verticalAlign=top;image=data:image/png,iVBORw0KGgoAAAANSUhEUgAAAcsAAAHNCAIAAAD+OccNAAAACXBIWXMAAA7EAAAOxAGVKw4bAAAgAElEQVR4nO3de3yU1bU//j33yUwmk0zud0gICQaChEu4o4WjSI9VTiNSEFv9niovFV/1UnrOaQu0ttaqbUFbxSq1lQNFLRW1tYciSuSmRS6RAOGSBAmXEHK/JzOZ5/dH+qP2WXtwTTI7E+zn/TqnL1xds5/97HlmBTOrextampsEAAAoYNY07fI/fPbPAADwuQwGwxWC5t7e3r4/9ZXXz/7nZ+MAAP/KPltJL/+57w+f/c8+RqOx7x/NPT09QgiNEKi2APAvT1dM+/4g1Zfy98JqNvcVWcOVi+b9999//Phxzjzmz59///33D+xehqKFCxdu27aNk5mUlHTkyBHV8xl8zz777KpVq5jJVVVVUVFRKqcTBidPnpw8eTIz+dlnn120aJHS+YRFVlZWc3MzJ7O4uPiFF15QPZ/B98QTT7z77ruczMLCwu8s/7bJZDIajeYrp3700Uf79+/nDDpq1ChO2lWnvLy8oaGBk9nZ2al6MmFRVVXFXAEhRN+/En3BtLW18Vegurpa6WTCpbq62ufzcTKZfye76pSVlW3fvj3YVxlVTAUA4F+Z3+/v+wMqLABAiF3+NgsVFgAgxC5/v4UKCwAQYn6/H3+HBQBQ4nLbKyosAECI4bcEAACqoJcAAEAV9BIAACiHCgsAEGL4OywAgHKosAAAqnzO3lorVqyorKzkDJScnNzW1sbJNJvNRUVFrNkp89FHHzG3saiurmbumBUfHz9+/HjmBMaNG+dwOJjJKhw9erSxsZGT2dbWtmvXLuawc+fOZWZmZ2cnJSUxk1U4d+7c6dOnOZmapm3dupU57KxZsyIiIjiZCQkJOTk5zGFVaGlpOXz4MDN5z549LS0tnMyxY8cmJydzMu12O/8jo4KmaXv27GEmOxyOixcvcjJHjx698PYFTqfTarVKdobtn+Li4gHc6dA1f/585gps2LAh3JNVIi0tjf8YhHuyShiNRv4KeDyecM9XiZKSEuYKzJo1K9yTVWLp0qX8x6CqsqL2Yk1TYwN+SwAAoAoqLACAKqiwAACqoMICAKiCCgsAoAoqLACAKqiwAACqoMICAKiCCgsAoAoqLACAKqiwAACqoMICAKiCCgsAoErIKuyMGTOYmS6XyyczYsQIIzFlyhQavO6662hw8uTJNJiRkUGDRqMxKiqKOduZM2cyM/Py8piZQoiDBw/SFViyZAnzZsePH0+DcXFx0pv99NNP6bVuuukm5lSD2mqSuXGfEOKXv/wlndXatWvp/MeMGUODDodDerNHjx6VPl3Uj370I+ZUExMT+Sswbtw4ZuaiRYvorD755BPpfVmtVhrct28f82al3n//ff59paenMzOvu+46ZmZmZqZ0YjExMfRm33//fZr54IMP0swZM2bQ4KhRo2jQYrHwV2Dq1Kn85MvM/XiNlMFg4CebTCYa7O3tvXxA42V+v58GNU1jZkrHDEpQ98VnNBrpIkjvi3+z0mCga/HvazBXQHzmkM7PRvjvbKBhpZm8mQYnqIWVvi/S+5Ler3QEPkUrEBR+KZDe7AA/MkHp3wch/EsMAPBFhQoLAKAKKiwAgCqosAAAqqDCAgCoErJeAj5N0woLC2l83bp1brdbFzSZTL29vZzgoUOHmpubdcGEhIS33nqLXutLX/pScJMOteXLl9fW1uqCDz744EMPPaQLSm/22LFjjz32mC4YGRkZHx9Pr7VkyRK6Mna7PehJh9TWrVtffPFFXTArKys3N5cGX3nlFV3QYJAfk/yd73znzJkzuuATTzxxww03DGy+g2TEiBH79++n8TvvvNNHTkdesWLFhQsXdMGVK1fecsstuuCmTZuefPJJXTAlJWVgk1UlJyeHHlwt7TpYvnz5N77xDV1w586dly5d0gWlLXcmk+no0aP9nyhDGCqsEOLgwYM0mJmZmZWV1e8xq6urjx8/rgt2dXVJq3nYVVZWnjx5Uhc0mUzM2TY0NNCb9Xg8DQ0NNLm5ubmmpkYXnDBhAnuySjQ0NNDHIDIykt5XdHQ0/008duzYiRMndEHmueVDgd1ul95seXk5/UFrMBjKy8t1wbq6Ovry2tpautp0wCHi5MmT9ORw6WzT0tLS0tJ0wUOHDtGnSAhBg4PQr4bfEgAAqIIKCwCgCiosAIAqqLAAAKqgwgIAqBKGXgKDwbBu3Toaf/bZZ2lT0QMPPEC/Wn3rrbe2bNmiC9rt9unTp+uCHo9nYJNVJSsri7aP7Nmzh253dOONN95+++264DXXXEPX0Ov1/u///i+9lt1uHzFihC7Y09MT9KRDyuVy0fdr9OjRtPnG7/fffffduqDFYnnhhRfosKNHj05ISNAFd+zYsXXrVl2wu7s72DmHVl1dHb0vt9tNPwVCiGnTptGNS4qLi10uly4o3eVuzpw59IGpq6v75JNPgpv0oJg0aVJXV5cuKN0Ha+PGje+++64uOHLkSHqzbW1tr7/+ui5oMBh27tw5sMl+Hi1EnnnmGeYVXS6XdIThw4fT5M2bN9PMVatW0cxJkybRYGZmpvRatPE2kNWrVzNXQNrGGEhOTg4NSrdHe/jhh5kToD2AfZKSkmiQ361VXFzMnICmafzdC6WF4J577qFj7t27l2babDbpBEaOHEmTp0yZQoOzZs1iTjU5OZm/AnPmzGEOK3276c/CPtJu0I8//pg/MaqkpIQ5VSFEZWUlc9iVK1cyxwz08ZRuLrpjxw6auWzZMpp511130UzpxzOobq3169ezl1arqqyovVjT1NiA3xIAAKiCCgsAoAoqLACAKqiwAACqoMICAKgSnp1fpI0Ho0ePpqet2Ww2mhkdHU0PKJQGh2y31rx582jzTVxc3Pjx43VB6Xfu1dXVb7zxhi7Y29srPbexsLCQ7ppRWloa3IxDzeVy0dlKN0BKTk6mXxmbzWbpU7RgwQLa7dTY2Eh7fRwOR3AzDjWTyURXwOFwSLe8GjduHH1gaF+aEGL79u1HjhzRBSMjI+luVdK2sKFg6dKlnZ2duiDd4UUEaAhJT0+nz0ZXVxddbYPBEFRDRX/w+w+ujN+tFRkZKY1LD7P8onZrlZaW9nupNU3btm0bHTPQj5Pq6mo6wrx585hTDXu3lhT9BPYpLy+nyQsWLKCZV1e3ltfrZU6A9tiKAEcmFxQUMKcqBrdba4Ck7fZ0V0yBbi0AgKsaKiwAgCqosAAAqqDCAgCoggoLAKBKeLq1xo4dS4MZGRl085f29nbaTuHz+egISUlJ0u4f5d0YoVNeXn7x4kVdMD09nR5fZjab6QrY7Xa6I5EQwmAwhHCSoeJ0OuktSNshWltbDxw4oAsGak2T9mBdc801Q7CTz2g00hWIiYlxOp00WfomHjhwoLW1VRdMSUmhNyttUYiPjx+ae2vt3r2bHvtoNptp0GKxeL1eXdDv99MViI2Npad/GgyGQ4cODXi+VxSqDomBd2tVVFTQYefPn08zpX02X/nKVyQ9E1VV0mtJN++RGsxurTvuuINmSvfW+pfq1gpqby2+xx9/nDnVIdutJT0z8aWXXmJO9eraW0v61zLpT1nsrQUA8C8BFRYAQBVUWAAAVVBhAQBUQYUFAFAlPN1a0u8KOzs76WY/DoeDJtvtdhqU9rgYjUZ+20DYSW/WarXSZfH5fDTT5XLRzhUhRHt7Ox1B07SBTXagLBYLvQVpK4LZbJY+A/xrdXZ20pMfaevPIDMYDPQcw4iICOkT29raSr/4drlc0gcmhJNUTbq/l3RjJn4psNvtdNjOzk662iaTqampKbgZByk8Z81KlzUrK4s2V23evFl6fipTRkaG9FrR0dH9HlOdF154gZ6f+rOf/YzOdvbs2fS+6urq4uPj6bDXXXddTU2NLsg/CVGR4uLi7du3czInTJgwwH32vvGNb7z22mu6IH9vLUU0TaPdrH6/X3qzZrOZbkH58ccf0+0uryI+n0/6SWxqauLvfkf95je/ocPm5ubS1Q6qW6t/8FsCAABVUGEBAFRBhQUAUAUVFgBAFVRYAABVUGEBAFQxhKovcsmSJcy2KqPRKD30sLe3l07GZDKp2Hyvurqantwp9bWvfW3jxo2czNdff1164p5UcnIys2/R7/fTqRoMBpPJRJOlPZ4Gg+RdbmhoCHSYoE52dvapU6c4mUIIo9HIfKI8Hg/tT1RE+mi1tbUxm8AsFgttpw0kJSXlwoULnEyn00mbioJ6Zwf46ejq6qK7ZQayZ8+eKVOmcDLnzp27detWTqbZbJaeLmw2D6iLVNM02tkWyLlz55iZ3/rWt37xi18wk09XVTqdTqvVGrJ+WOnOpFJ+v//TTz8N1XVV49+XtNs/EOaHcCjo7u7mJ/N/YDc0NDQ0NPRrRoON/3EVwSxXe3t7e3t7v2YUBvzHm/+R8fl8/AIXdvz7+iz8lgAAQBVUWAAAVVBhAQBUQYUFAFAFFRYAQBVUWAAAVVBhAQBUQYUFAFAFFRYAQBVUWAAAVVBhAQBUQYUFAFDlc/bWWrJkSXV1NWcgj8fD3MjDbDZPnz6dNTtldu3axTxq9NKlS8zNKZxOZ05ODnMCEydOlB6OO2gOHz5cX1/Pyezq6iovL2cOe+211zIzR44cmZKSwkxW4cyZM5WVlZxMTdNKS0uZw+bn51ssFk5mYmLiqFGjmMOq0NzcfPDgQWZyeXk5c+uTjIwMj8fDybTb7ZMnT2ZOQJEdO3YwM6Ojo5kH0+bm5v73f32nb28toV2Rw+FgXr6goODKQ12lpOdLBxLuySpRWFjIX4Hjx4+He76hx9y+ss/cuXPDPV8l+CvgdrvDPVklhg0bxlwBj8dTVVlRe7GmqbEBvyUAAFAFFRYAQBVUWAAAVVBhAQBUQYUFAFAFFRYAQBVUWAAAVVBhAQBUQYUFAFAFFRYAQBVUWAAAVVBhAQBUMV/5v46Kiurp6eEM5HQ6P/jgA06m0WhMTU3lZKpz/vz53t5eTqbVau3s7ORkGo1G5goIIZKTk83mz1l8perq6pj3FdQ8y8rKampqOJkejye8u4u1trYyt0o6f/48f1hN05iPgdPpZO5BpUhPT8/FixeZyQbD5+zDd5ndbmeugMViSUpKYk5AEebegUKIqKgo5mfB7Xb/4x9CtfFMcXFxP25v6Js/fz5zBTZs2BDuySqRlpbGfwzCPVkljEYjfwXCWzTVKSkpYa7ArFmzwj1ZJZYuXcp/DLC3FgCAcqiwAACqoMICAKiCCgsAoAoqLACAKqiwAACqoMICAKiCCgsAoAoqLACAKqiwAACqoMICAKiCCgsAoAoqLACAKiHbQG/s2LF/+MMfOJkOh2PEiBE0vmrVqtjYWF1w3bp1hw4d0gXnzZt300036YKHDx/+9a9/rQu6XK7W1lZ6rVOnTnV0dHBme+2113LShBAZGRnMTCHEtGnT6MTuvPPOiRMn6oLvvffeG2+8oQvm5eXdf//9zGutWLGisbFRF/T7/WVlZZyXX3PNNcwLCSFsNlt3dzcnc9asWXRW06dPv/322zkv93q9Dz/8MI1///vfT0hI0AVffvnlAwcO6IJut3vnzp2cawW1XdbIkSM//PBDTmZhYaHP59MFU1JS/vu//5t5raeeeurMmTO64KJFi6ZMmaILlpSU0I9ndHQ0f7/NxMREZua4ceNKSko4mfHx8cnJyTT+1FNP2e125uUGwu/3X3/99czkMWPG9OMSIauw/7Ql4hUZjcZPPvmExseOHZuVlaULrl69mibfeuutM2fO1AUbGxtpZmpq6rlz5+i1oqKimLPl35fD4WBmCiFqa2tPnjypCyYkJND72rdvH72v+Ph4mhnIqVOn6CJMmDCB+XL+WgkhjEbuvxX5/X56X5MnT2beV1dXl/QpGjNmTG5uri74q1/9iibzN9mzWCzMTCFEZGQkM9Nut+/Zs0cX7O3t5b+zDz30EL2vBx98kI5w6NAhmllQUMC8kBDCarUyM/kfGavVKn0Ti4qK+IMMBHOT6D5BfRAuw28JAABUQYUFAFAFFRYAQBVUWAAAVVBhAQBUCcNxpwaDYc2aNTS+bt062sDkcDjoF6MxMTH05TabjWZGRERkZ2fTZNoBNsiys7Npn0pERATN/NKXvkSXy2w2P/jgg7pgoE6p//mf/6FdQVu2bAluxqHmcrno++X1eul9ud3u5uZmXdBoNEq/c5c2M9x1113Tpk3TBY8dO8ZsKlIkNjaWvrO0YfEKvv3tb9fW1uqCtFVLCBEZGUmXKzIyUvpV/qAxGo3SUvDYY4/RI66jo6Pp2cDx8fGXLl3SBSdPnrxo0aIQznMgwnOgNP0UCSGysrKqqqp0waKioo8++kgXvO666+jLu7u7aXPfwLu1FKmoqKDdWv/5n/9JM8eNGzdu3Dhd8N1336X9sB6Pp6GhgY5QXV2dlpamC27dujW4GYdaa2srbUfVNI0G8/Pzjxw5ogsG+nHi9/tpcO7cuXPnztUFf/KTnwQ341CLioqSfhD4Fi5cyMxsa2ujn46gurVUMBqN0hVwu90tLS264NixY0tLS3XBmTNn0vtqa2sbOhUWvyUAAFAFFRYAQBVUWAAAVVBhAQBUQYUFAFAlPL0E69ato8Fbb72VNuUkJCTk5+frgtHR0XSE2tra6dOn64IRERHDhw+n1wpvk4oQIisri25WJO3WkkpNTb377rt1Qbvd3tXVRZOdTmc/ZqhadnZ2Tk6OLmixWDRN0wXj4uKKiop0QZPJJN22Izo6mgbff//9yspKXVDaZDKY2tra6GPs8Xjmz59Pk19++WXaJiFtqJgxY8bIkSN1wcjISPrpcLlc4f0gaJomLQUTJ06k9+V2u10uly6Yl5dHN+obOXIkHTYuLu6WW24Z2Hz7RQuRZ555hnnFQJsPVVRUMK+1atUq+vJJkybRYGpqqvRa/G6t1atXM2e1f/9+5phCCFpchBCvvPJKf5c/aPPmzWNOtbi4mD8s/4fEc889R1++du1amllUVDTAm12wYAEdlr+3VnJyMv9ac+bMYQ47depUGszPz5cOazKZaHJeXh4NvvTSS/Tl0rbToLq1KisrmSuwcuVK5piBPp60kgohxo4dS4Nr1qyhE5BW7XHjxtFM2id+BevXr2eugKZpVZUVtRdrmhob8FsCAABVUGEBAFRBhQUAUAUVFgBAFVRYAABVwtOtJf0OVLorUmVlJT0vz+l0FhYW6oKpqal02OjoaOn3kufPnw9iugpkZWXRiUn3Vaqtra2urtYFo6KiaDdCb2+vdM+wgoKCoE6aCqP4+Hj6zo4YMYL2aRiNRrohTiAej4c+G/yDpxSx2Wz0ZocPHy5tSsnLy6PdaVlZWfR0uLi4OPryhIQEeq2UlJSwty1KS0FcXBw9qDQzM5M2VJhMJrpcLS0tdNikpCSaqZHWwNDj9x9cmaJuLWlv4IoVK2imdDu+IdutVVpayhz26aefpi+fPXs2zaTbuPWprq6myUOzW0tq79699OU2m40/q6HZrbV48WL68sOHD0uTpd1aH3/8MX9iVFCbNw5mt1ZTUxPzWsuWLaMvp52/Qgh6PqYI5uBOgW4tAIChBhUWAEAVVFgAAFVQYQEAVEGFBQBQJTzdWtIvRv1+P92IwWg00mTpN4DSTLPZLL1W2Elv1mQyGQwGXdBgMDBXQJoZ6FpXEel9mc1m6U0ZDAaNtOCYTCbmGg4yegtagE1ezGbJR1WT7V0iXQFpUHqm2SCT3iz9FAQSqD4wS4HJZKJHLoZWeM6alX42Ap2ESNsApU/GzTffTIc9ffq0dPfCsFuwYAE9CfGVV15ZsmSJLqhpGnMFpJlCiKKiopqaGl1wwoQJwc04fKT35fP5pE2+w4YNO336tC64adOmjRs36oI/+clP3n///dBNM2hVVVX0FkaMGCF9E7u6umiRHT9+/IEDB3TB6dOn79q1SxeUnhgY9pMQA/2Y5PP7/XS5srOzmY1ovb290h9dIRT+H+MAAF9UqLAAAKqgwgIAqIIKCwCgCiosAIAqqLAAAKqEpx9WKi0tjTas3XvvvS+99JIumJCQwBzTaDTSoyiFELW1tf2YYQj9/Oc/HzZsmC6Ynp5OM7/xjW/ceOONuuDJkydHjx6tC0ZGRkpv1u120/3Mwt4N+s477/zqV7/SBfPz848cOaILjh49mu44JW3wFEI88MADtP/m97///WOPPaYLhr2NT/pwZmZmvvHGGzR5woQJtLEpNjaWjiB9DMaPH09X+8iRIwsXLgx63upNmTKltbVVF/ztb39LWwxdLhe9WbfbTcc8duzYbbfdpgsOwqdgCFXYs2fP0n5Yt9tNSwmf3+8/deoUjfN3L1QkIyODeV+xsbF039iamhpaiTweT0NDAx0hKSlpCPbDNjc3S2+BBiMjI/nPwIULF+g7Hh8fT4eV7qM6mKQPp81mk95sWVkZbfzMy8ujIyQlJdGgz+ejw0qflqHg6NGjLS0tumB7ezvNbG1tpTfb3NxMMzs7O+kzMAgVFr8lAABQBRUWAEAVVFgAAFVQYQEAVEGFBQBQRd7y0g/333//c889x8m0WCzSk+nOnj3r9Xp1wcTERHqaJp/P56MHtQoh9u3bR68ltXTp0ueff56T+ac//enmm29mTuzLX/5ydHQ0M5nq7Oyk7QGBGpik8YqKiosXL3Kude211x48eJA5MbPZLN0aisrPz6ddNdLNlux2e3JyMnMC586do/vRmUwmOqv6+vrjx49zxnQ6nW1tbcwJ5OTkSNtXqLS0tIyMDF3QarVKzwc8ffq0dFdGel/SNYyKiqIdKbW1tdu2beNMVQjx8ccfjx8/npN5++23v/baa5xMp9N566230vinn35Kd49LTk622+26YH19Pe06cLlctFGkp6fn3Llz9Fp79uzhTFUIsWLFih/84AfM5NNVlU6n02q1hqxbi99h6vV6N2zYEKrrqsYsQ0II+k5fwZ///Od+TScM6urq+MnM8iqEoK0zQ1ZnZyc/md8Cdfbs2bNnz/ZrRmEgbZaS4n9k2tvbr6JS0L8mevyWAABAFVRYAABVUGEBAFRBhQUAUAUVFgBAFVRYAABVUGEBAFRBhQUAUAUVFgBAFVRYAABVUGEBAFRBhQUAUOVz9tZ6+eWXmfsdHDx4kLlPj8lkGjt2LGt2ypSWlvK3gHI6nZxMTdP27dvHnMCoUaMiIiKYySpUVFRIjzOi0tPT+VtbHThwgG7sJJWRkRHek7IuXrwo3WyJstvtBQUFzGE//fRT5tYnHo+HnoY5mNra2k6cOMFMnjhxosFg4GS2tLSUl5dzMm02W35+PnMCKmiaxt837uabbx41ahQnMz09feqUyX17awntivg7BxYUFFx5qKtUUHUw3JNVorCwkL8Cx48fD/d8Q2/jxo38FZg7d26456sEfwXcbne4J6sE/8ehx+OpqqyovVjT1NiA3xIAAKiCCgsAoAoqLACAKqiwAACqoMICAKiCCgsAoAoqLACAKqiwAACqoMICAKiCCgsAoAoqLACAKqiwAACqoMICAKhivvJ/ffDgwfb2ds5ATz75pMlk4mQajcb4+HhOpjqXLl3y+/2czHnz5i1atIiTeezYMeYKCCFiY2PN5s9ZfKWampq6u7s5mdnZ2fzNpUaPHs3cFjIqKiq8+ze2t7e3tbVxMm02G38FHn30UeZjEBERERUVxRxWBa/X29DQwEx++umnU1JSOJlr165lroDJZArvDpZCCOZWk0KIb37zm/feey8nMzIy8h//EKqtvYqLi/txe0Pf/PnzmSuwYcOGcE9WibS0NP5jEO7JKmE0Gvkr4PF4wj1fJUpKSpgrMGvWrHBPVomlS5fyHwPsXggAoBwqLACAKqiwAACqoMICAKiCCgsAoAoqLACAKqiwAACqoMICAKiCCgsAoAoqLACAKqiwAACqoMICAKgSsu2dhg8fzsy02WyTJ0+mcYvF4vV6dcFrr702MTGRM2xtbe3Bgwd1wYiIiJkzZ9LkH/7wh11dXZxhs7KyOGlCiISEBGamEEK6O0ZERERnZ6cuOGzYsNzcXP7ITL/73e+OHz/OyczIyOAPK30TpYqKiux2uy6Ynp5+zTXX6ILNzc0ffvihLmg0GqW7o0knIF3Ytra2/fv3c6b6T1slfZ7U1FTmhlW5ublJSUm6oMvlmjp1Kk3etm0bvV+r1drT06MLOhyOjo4OXTAzMzMvL08XrKqqevHFFzlTFUJER0czM7OyskpKSjiZbrf72muvpfHZs2fTnef27dtHF1Z6s6mpqaNHj+ZMwO/3f+973+NkCiGGDRvGzPwn/N1iruyZZ55hXjHQ85qenk6DmzdvZk5gy5Yt9OWZmZnSZLfbzZzt6tWrmRNgflz75OTk0KD0o/Xwww8zJxCUefPmMadaXFzMH5a/IeGMGTNo8J577qFj7t27l2babDbpsNKPwZQpU2iQvwVUcnIyfwXmzJnDHFb6dufn50uHle4HSIumEGL69Ok0uGzZMjomsw72qaysZK7AypUrmWOmpqZK401NTXRY6V+VpMG77rqLOVWfz8dfgfXr1zOH1bC3FgDAIECFBQBQBRUWAEAVVFgAAFVQYQEAVAnDYXwGg0H63a7T6UxLS9MFA31lTKWmpi5YsEAXDKqDajBNmzZt3LhxumBqaipdAWk7yxdAZmZmcnKyLjhhwgSaGRcXR99Zk8l0+vRpmpybm0vbdwwGA80M7zmMQojIyEh6X4F64yZPnky7tfLy8goKCnRBs9ks/Xy9+uqrukhNTU0Q01XAYDDQFRBC/N///R8NFhUV0eY2q9VKb9Zms9GbjYmJueGGGwYw2f7i9x9cWdi7tYIS9m6t0tJSFffFF/Zureeee24g86f9rX3Ky8tpsvRjHPZurcWLF/OHlXZrffzxxzTz7rvvppnSriZana9ARbdWoGZK6RG8O3bsoJnLli2jmdJ+tXHjxtGXo1sLAOAqhgoLAKAKKiwAgCqosAAAqqDCAgCoEoZuLSHEyJEjaXxZ3l8AACAASURBVDAhIYF+E+1yuWhmfX19XV0dzUxJSdEFfT5fRUXFAGY6qGpqapqbm3VB6SZS0s623t7eU6dO0WGzs7PpTkVh19LSQjf3kt5sREQE7WEyGAzSTV7Onz9Pg3FxcfSRczqdQU14cPT09FRVVdF4bm4u/eKbbk4mhHC5XHRl3G43XQHmrnWDLycnp7W1VRdsbW2lD4z0vjweD12BuLg4+nLp9mwhxu8/uDJ+t5bL5RrgtVatWkWH/cpXvkIzpQ+rEELaDiI1mN1ad9xxB82UNhXNnj2bvvzSpUvSa1VXV9PksHdrSffWkgaLiorohQJ1a0nL7qZNm+gIjz/+OHOqg9mtdfjwYWmy1+tlTkDarTU099YK1K0lJW04W7NmDc1ct24dzZRuAWo0BvEv8ejWAgAYWlBhAQBUQYUFAFAFFRYAQBVUWAAAVVBhAQBUCUObpKZp0j6+8vJy2mqzcOFCesTh9OnT6a6GdXV1dNjMzExpWw/dBm0oMJvN9L5MJhMNtra20puNi4uT3uzo0aPPnj2rCwa1r5IKRqOR3ld+fv5f//pXXXD//v30Zu12u3Rnyz/96U/Z2dm6oNVqHdhklTh9+jS9r+zsbOl9RUdH037Y3Nxc2uP53HPP/epXv9IFh2BD9BUkJibSxvDRo0fTlZG2W0kfLYvFIv1w0b0uQys8697d3U2D0u7fnp4emuzz+ZjB7u5uaTUfmqS30NvbS4Ner5cGu7q6pDfb1dVFkzVNG9hkB8rv99NZ+f1+egsmk0n6wEiDZrP5annHNU2jtyB94IUQPp+vt7eXkxzobzBXEekTK/10SIuG9NGSfmSC6oftH/yWAABAFVRYAABVUGEBAFRBhQUAUAUVFgBAlfCcNbt3714af+SRRy5cuKALPvDAA8uXL9cFzWYz7VyRBltbWydPnkyvFfZv0qVWrVp1//3364Lbt2+nWzXGxsbm5+frgoE2DHv77bfpt6grVqwYwExDwOFw0Fu4dOkSfb9yc3PpA+Pz+ZYuXUqHlX47/L3vfe/dd9/VBcPesZeSkkLvq6am5nvf+x5NNplMtJcgPj6enpC4devWF198URdcsGDBww8/PLD5hl5vb6/045mTk9PV1aULPvrooyNGjNAFpVup3XzzzXRhpQuoadrUqVODmnOwwtOtJV3W0tJSutng8uXLpclMp0+f/uijj2icv3vhYMrOzqa9nLt37z5y5IguaLVaaTA2NlY6LD02XAhhsVj6O83Q6OjooLfg8Xik7xd9Brq6uujLRYD2nZMnT9Jh+WfNKmKz2eh9lZWVSe9LWiDy8vLKy8t1wZiYGHqzkyZNGthkldA0Tfp2u1wuuj9seno6sxTEx8fHx8dzMumShhx+SwAAoAoqLACAKqiwAACqoMICAKiCCgsAoEp4egnuvfdeGhw1ahQ9P/W9997bunWrLvjv//7vN998M+dCRqNRerheaWkpb6aq/PrXv/Z6vbrg3XffXVRUpAu6XC56C+np6XQNjUajdGF/+tOfRkdHD2y+oSe9r9GjRy9evFgXlB6JajAYpO+stFsrLS2NJjscjiCmq0B9fT19vzwez9q1a2mywWCgLYY2m4324TmdTnqk5pgxYwY2WSVMJpP0Zl9//fWenh5dUNr98uqrr7733nu6YEJCQm1trS6YkZHx3e9+dwCT7afw7F7461//msbT09Orq6t1wZ6eHtrPkZSUxKywfr9/586dNB72bq2//vWvJ0+e1AWnT59OK2xrayu9hdmzZ9MPZ11d3T333EOv9f3vf38IVljpfY0aNUr6Q4LSNE36zkq7tc6ePUuTw96t1dLSQj8I+fn5ZWVlYZnP4DMYDNK3e/ny5S0tLbog/RuJEGL37t10DadPn75r1y5dcNy4cWGpsPgtAQCAKqiwAACqoMICAKiCCgsAoAoqLACAKiHrJaDbYgXi8/mkfTY2m43ulBMZGUmTL1269Pzzz3Ou1d7eLr3Wxx9/zJprMPfV1NTEzBRCpKam0r2dysrK6H1VV1fTW/B4PDSzp6dHerOvvfZaRESELnjmzBnmVC9evMjMFELQ7c2ukEln6/V6me+s3++X3uyWLVtoo4jVaqXJdPemQKTnSwZCN0ILpLm5mc7K7XYzV2DgTp06xU9ub29nZp4/f56Z2draKr3ZCRMm0M6BHTt2HD16VBfs6OigayhtBJR+ZKSdJ4HU1NTwk/9BC5Hi4uL+XH7Imz9/PnMFNmzYEO7JKpGWlsZ/DMI9WSWMRiN/BTweT7jnq0RJSQlzBcLeBqfI0qVL+Y9BVWVF7cWapsYG/JYAAEAVVFgAAFVQYQEAVEGFBQBQBRUWAEAVVFgAAFVQYQEAVEGFBQBQBRUWAEAVVFgAAFVQYQEAVEGFBQBQ5XP21mppaaFHkklJT6CTMhgMdrudmaxIV1cXc5sSTdNOnDjByWxsbORPwGaz8VdMhZ6ent7eXk6m2WxmroAIcGCflMViMZvDcxBnH5/PJz36iTKZTPwV4N+UyWSyWq3MZBX8fj89SDGQS5cu8ReBaSiUAhUbp/3T23rlHWL453EWFBTwN565itB9/64g3JNVorCwkL8Cx48fD/d8Q2/jxo38FZg7d26456sEfwXcbne4J6sE3Vs1EI/Hg721AACUQ4UFAFAFFRYAQBVUWAAAVVBhAQBUQYUFAFAFFRYAQBVUWAAAVVBhAQBUQYUFAFAFFRYAQBVUWAAAVVBhAQBU+Zy95p5++unz589zBjp37tyePXs4mSaTaeLEiazZKbNv3z7m3n2pqanMPe6sVuvZs2eZEygoKODvW6ZCeXl5U1MTJzMuLo6/0WJDQ4PP5+NkDh8+PDExkTmsCufPnz9z5gwnMyIiwuVyMYf1+/3MPe7i4uJGjBjBHFaFlpaWo0ePMpNTUlKY76zFYjl37hwn02azjRs3jjkBFTRN++ijj5jJ1113XXx8PCdz+PDhN//7l51Op9VqDdmGe8XFxQO406Fr/vz5zBXYsGFDuCerRFpaGv8xCPdklTAajfwV8Hg84Z6vEiUlJcwVmDVrVrgnq8TSpUv5jwF2LwQAUA4VFgBAFVRYAABVUGEBAFRBhQUAUAUVFgBAFVRYAABVUGEBAFRBhQUAUAUVFgBAFVRYAABVUGEBAFQxh2og/oYXZrP5hhtuCNV1L+vu7m5ubtYFDQb55mGHDh1ibhQUGxvLnEBkZCQzUwhRUFBgtVp1QaPR6Pf7+x0MdLPSzbH27dt36dIlzlSjo6M5aX1MJhNz07IRI0bQkfn3ZTAYpBsdSTf3kg5bX19fVVXFmarNZuOk9XG73Q0NDZzMxMTE9PR0XTDQm5iQkECDjY2NdOM3/gPT1dVVVlbGmaoQIiIigpnJ/8hERETk5+fTuHQRYmJiLBaLLtjW1tbR0aELSm/WYrHExMTogpqm/eUvf2HOlr6chb9bzJU988wzzCu6XK5QXfSztmzZQq+VmpoqnUNUVBRztqtXr2ZOYP/+/cwxhRA5OTk0OHXqVBqU7lQk3fMt0A+56upqOtt58+Yxp1pcXMx/F/ifwxkzZjCD0g+hzWaTTmDkyJE0ecqUKTTI3wIqOTmZvwJz5sxhDit9uwPtZ+j1eum1CgsLaeb06dNpcObMmTRYUFDAnKoQorKykrkCK1euZI4Z6OMp3Styx44d9FrLli2jmdIVGDduHH05869ZfdavX89/DLC3FgCAcqiwAACqoMICAKiCCgsAoAoqLACAKiHr1lKkvr6+s7NTF5R2Y3R0dCQlJemCgb5eb21tDdUM+ycqKorONioqin676nQ6aabL5aKZbrdb+lW+tHmILuAgs1qt9L7sdrv0ZmkwUAdVUlJSe3u7LihdQ7M5zA+/2Wymb2JcXFxbWxtNNhgMNBgTE8N/Nmiwn+1HoWMwGKTtBHa73el06oItLS30pFGHw0FHkD4w4brZoV5hv/nNb77xxhu64KxZs0pKSnTBSZMm1dTU6II2m016/mtQPZ4qtLS00NkuWrRoyZIluuDPfvazd955RxfMz8/nn2ublpZGz/6cMGECe7JK9PT00BXIycmhwdjYWOk7Kx2WPhhCiNtvv52OkJubG8R0FUhPT6ezLSsrGzNmDE3WZE2yjY2N9L6++tWv0gdG6oMPPgjvqYUmk+n06dM07na7W1padMHvf//7paWluuCaNWvoB+E3v/kN7XJNTk4e0Fz7C78lAABQBRUWAEAVVFgAAFVQYQEAVEGFBQBQBRUWAECVod6tFRERQXtar7vuuj/84Q+6oHTHs5qamri4ODqstPdlML388su0W+i73/3uQw89pAvee++9dJvBffv20fuKjo5uamqi19q1axdNvvPOO4OedEhZLBb6zo4ZM+aPf/yjLvjJJ5/cdtttumCgbq3JkyefOnVKFywoKKDXMplMwc041M6cOUPfl8zMTGkTd1paGt0IasuWLXl5ebqgdGOqq0tMTAztVv7JT34yceJEXfDJJ5+ka7hw4UL6kQlX+/NQr7CdnZ20YV7TNGndpNra2urr62mcv3uhIi6Xi95CR0cHnW1XVxfNtFgsNFPTNOn/uCAyMpKOIO1gH0xer5fO1ufz0ak6HA6aGajCNjY2SteQjsDcx1ad3t5eOtWYmBjpmyjdeDciIoL5Qbi6NDY20n5Yh8NBb7arq4uuYUdHx9BZFvyWAABAFVRYAABVUGEBAFRBhQUAUAUVFgBAlSHUS7BkyZILFy7Q4H333acLlpaW0vPmpk2b9oMf/EAXTEpK2rZtG71WcXHxwCY7UD/84Q9pZ9XChQu//vWv64KZmZn05YWFhfS+urq6VqxYQZPpQbNDwfXXX09nW1FRQd/ZESNG0JsN1Gv129/+lu5euGnTpq6uLl3QbrcHN+NQMxqN9ETLlJSU559/niZLmxGlxz5eRXp7e6UHR7766qu0uer1119/7LHHdMHY2Fi6hq2trXTYhISE2tpaXXAQPhpDqMLu3r2bnq5833330cXavXv39u3bdUG6oaQQwm6388/+HEyffPLJyZMndcGvf/3rzNl6PB6aWVdXd/DgQZoc9q1gpZKSkugtVFRU0He2ra1t7dq1zGGlx8q++OKLdGXCu3GfEMLv99NZ9fT0DM0nVgVN0+jbLYTYvHmz2+3WBR977LEPPvhAF5w5cyZdQ6fTuWvXLl0wNzf3+PHjuuAgVNih+LcbAIAvBlRYAABVUGEBAFRBhQUAUAUVFgBAlfD0EjzyyCM0mJ+fn5GRoQtKN/i44YYbIiMjdcERI0bQzMbGxh/96Ef9naZC2dnZKSkpuuD+/fsPHTqkC8bFxdXV1emC0m207Hb7008/Ta/1wgsvdHR06ILSA00H08GDB+lj4PV66Vf8cXFxNNNisTzxxBPMa915552TJk3SBU+cOCE9NnHQeDwe+n4FtWXJ6tWrq6urdcHbb7+d3uyuXbvoiaJh32FOBOjokG5LlJOTQ+MxMTF0BGkwLi7um9/8Jh320UcfDWK6/aCFyDPPPMO8Ii2OfdLT02lw8+bNA5kVbf/qw99ba/Xq1cxr7d+/nzmmECInJ4cGp06dSoPSR5D2AAohYmNjpROTHpjMP2u2uLiYv+DS48SlZsyYwQzm5+fToM1m489K6vHHH2dONTk5mT8sv9dq8eLFA7yFwsJCOuxLL71EM9esWUMzCwoKmFMVQlRWVjJntXLlSuaY0idTCNHU1ESHnTlzJs2UBqdPn06D48aNo2PSDSGvYP369fy3pqqyovZiTVNjA35LAACgCiosAIAqqLAAAKqgwgIAqIIKCwCgShi6tQwGwx133EHjdXV1tJ0g0HFM1NmzZ99//31dsLOzU/oFfVlZGXNYRYYPHx4fH68LxsXF0dlGR0fTYHJyMv2G3eFwrF+/nl7rlltuoacenT59Otg5h5bL5aL3NWzYMLqXWEREBN0HxGKxSId96623mpubdUG73U731jp//nxwMx4Uzc3Nb731Fo3fcccdtFfpy1/+8jXXXKMLdnd308fAaDTSD53dbv/kk08GNt8Bkc5KCGG1WmkwKyuLfvUfExNDn6LMzMxhw4bpgomJidJPh3L8/oMr43druVwu6QjDhw+nyfxurS1bttCXB2oHudq7tWbPnk0nQM/X7FNdXU2T582bx5zqYHZr3XPPPXTMvXv30sxA3VrSDf2kG27x99YazG6tw4cPS5O9Xi9zAnfffTd9+bJly2hmUO3AKrq1MjMzmWNqwXRr3XXXXfTl0o9nUHtroVsLAGBoQYUFAFAFFRYAQBVUWAAAVVBhAQBUCVm3Fj1+LhC/3y/tEUlNTaXHn9XX1zMbSurr6+kX9NHR0Q6HgybzO3X499XT08PMFELExsbSYGRkJL0Fh8MhvS+6LK2trdIWhVOnTjU0NNBk5lTpvlxXwD8TzGQy0dlaLBZ6X+fOnaOZVqtV+mD0fe+vC0oXli+o/UE6OzuZmU1NTfQWzpw5I51qWVkZ84tvq9VKRzAajfRaFRUVzKmKYBYhqI8Mv13M4/EwPx3SZ0O6sEajkR7eFUhQH4R/4PcfXFnYT29VZP78+cwV2LBhQ7gnq0RaWhr/MQj3ZJUwGo38FfB4POGerxIlJSXMFQj7EZOKLF26lP8YoFsLAEA5VFgAAFVQYQEAVEGFBQBQBRUWAEAVVFgAAFVQYQEAVEGFBQBQBRUWAEAVVFgAAFVQYQEAVEGFBQBQBRUWAECVz9m9cPjw4RcvXuQMNHHiRObmUkajUXpc3WA6efJkb28vJ/PBBx+kZ3xKmc1m/vZaWVlZ0gM1B83Zs2fb2to4mc8++yxzBYQQv/zlL2NiYjiZSUlJ0dHRzGFVaGhoqK2t5WQeP36cvwI33njjnXfeycmMiopKSUlhDqtCR0fHmTNnmMnXX389c2vKlJQU5gfBYrFkZ2czJ6BIeXk5M3P16tXSrVCp4cOH//lPb//9H668BxdzRCFEQUEBf2uvqwj/8NTPXcyrVGFhIX8Fjh8/Hu75ht7GjRv5KzB37txwz1cJ/gq43e5wT1YJekJ4IB6PB7sXAgAohwoLAKAKKiwAgCqosAAAqqDCAgCoggoLAKAKKiwAgCqosAAAqqDCAgCoggoLAKAKKiwAgCqosAAAqnzO3lqzZ89m7r6TmZn5H//xH6xLms3Tpk3jZKqze/dun8/HyUxJSTl//jwn0+FwMFdACDFhwgSn08lMVqGsrKy+vp6TabFY+NvfLF++3Ghk/dgeOXJkcnIyc1gVqqurKysrOZler5e/Au3t7czHIDExMS8vjzmsCs3NzYcOHWImu93unp4eTmZqaipzBex2e1FREXMCKmia9sEHHzCT8/Pz3W43J/Of3tZQbTxTXFzcjzsc+ubPn89cAf7WhVeXtLQ0/mMQ7skqYTQa+Svg8XjCPV8lSkpKmCswa9ascE9WiaVLl/IfA+ytBQCgHCosAIAqqLAAAKqgwgIAqIIKCwCgCiosAIAqqLAAAKqgwgIAqIIKCwCgCiosAIAqqLAAAKqgwgIAqPI5e2sFMZCZO5TBYIiKimImSzcTMRgMA0xuaWlhblPCvy+TycTMFEJERkby84NaBObLOzo6mLuLBXVfBoOBubARERFWq5U57ABXQKq7u7urq4uTydwtrA9/uSwWi8Ph4I9MBbXVDl0un8/X3t7OfDn/vvgfGaPR6HK5mMlSgVZA+mxIk1taWpjX4t+X/qoh8cwzzzCv6HK5+MPOnz+fjrBixQqauWXLFpqZmZkpHZa5C5kQYvXq1cyp7t+/nzmmEKK0tJQ57NNPP01fPnv2bObLNU1LTU2lI0yYMIE51eLiYv61+Lv8Pffcc8wx9+7dS19us9n4s5J6/PHHmVNNTk7mDztnzhzmsIsXLx7gLRQWFtJhp0+fToPLli2jLy8pKWFOVQhRWVnJnNXKlSuZYwb6ePItW7aMDnvXXXfRTOnHM6ifnevXr+dPDHtrAQAohwoLAKAKKiwAgCqosAAAqqDCAgCoggoLAKBKyPph+TRNGzZsGI3v3LkzPT1dF3zhhRd+/vOf64LR0dH05SaTibYlJSQk9H+iKt13331nz57VBX/xi1/Q7jSr1UrvS7oCgXz44Ye09XXp0qX8EVR46623fvrTn+qCixcv/vGPf6wLGgwGugIWi0X6FL333ntZWVm64LJly95++21dcNSoUcHOObSqq6vpLaSnp1dXV9Nks9lM38SXX355+PDhuqDRaPT7/bogvwP96rJq1aqHH35YF3zvvffowmZkZNCnyGg0Slc7hMJQYYUQn376KQ16vV4ajI+Pj4+P54zZ29t77tw5XbCfTcLq1dbW0kVoa2ujmT09PfS+mpqa+NdKS0ujwaD+dwQqtLe30xWoq6ujmZqm0RWw2Wzd3d00WfoUSVdbWqAHk8/no7OyWCzST4fJZOrt7dUFo6Kiwn4X4eXxeKSH+9I1tNvt9CkKqh+2f/BbAgAAVVBhAQBUQYUFAFAFFRYAQBVUWAAAVcLwVbvBYJg0aRKN87/Xe/XVVzdu3KgLxsTE0GGjoqJuueUWOoIWzLZvKvzXf/1XbGysLjh+/Hiaeeutt44YMUIXlPZXtLa23nHHHTTucrlaW1t1webm5iCmq8DMmTMfeeQRXfD8+fP0/XK73fSdlXYvCSF++MMf0pYMq9VKR7Db7UFPOqQSExPphnCNjY3PP/88TZb2YIW9IUSRRYsW0W0VH3/88fz8fM7L58yZQxfWYrHQPhMtwO59IRSefti//e1vNE4foEDKy8vfeustXXDSpEl02NTUVNqiIYZAe+CECRMKCgo4mdnZ2dnZ2ZzM7u5uuixCiKSkpJqaGjoBzpjqpKam0mL6wgsv0FvIz88/cuSILhioW6u2tvb06dO64JQpU+izMWvWrGDnHFoOh4OuQFlZmfTTIe3WopEvhj//+c9021ba9xpIRkZGRkYGJ3MQFhC/JQAAUAUVFgBAFVRYAABVUGEBAFRBhQUAUCU83VqrVq2i8ddee62zs1MXXLhwId0DKSYmhn4R7Ha7adBut9NWJyHEoUOHgppzyL322mubN2/WBb/61a8yGwwqKyt/97vf6YIGg0H6/bjdbs/NzdUF6VIPssOHD9Mj89ra2ugtxMfH33bbbXSE999/nwYdDkdmZqYuOHny5BtvvFEXrK6uDuoowMFhMpmkb+L1119Pg9u3b6etF9HR0XRjoMmTJ990002hmmSo+P1+6bGJRUVFPT09uqDFYqGZf/nLXz788ENdsLCwkDZpXLhwYe3atQOYbH8N8KzHywZ+1izdh00IsXnzZpopLdDSHlvpMasimG4tRWfN5uTk0OArr7zCvNa2bdvoy6WbDAkhkpKSaDDsZ83OmDGDGSwqKqIXCvQTQrrX1KZNm+gIQ/Os2cOHD0uTvV4vTb7az5oN9PGUHvG9Y8cOei2cNQsA8K8LFRYAQBVUWAAAVVBhAQBUQYUFAFAlPMdY/fGPf6TBOXPm0GOampqaaHJUVBTdESclJYV+NelwOE6dOkWvdezYseBmHGqTJ08ePXq0LtjZ2UlvNicnZ8yYMbpgQkICXQGbzVZVVUWvlZ2dTb95r62tDXrSIRUZGVlUVKQLxsTE0GB6err0gZHuitTR0ZGYmKgLnjlzho5w8eLF4GY8KNxut/S+3n77bY1sCJeZmUl7mHJycujWaykpKXQFpJsiDSaDwSC92bq6OtqtdeTIkfr6el3QaDTSB8Zut9ObbWhooJlGo3Hv3r1Bzzso/P6DK+N3a0VGRkrjFRUVdFjpG7BixQpuz4Ss4ogh0K1VWlpKR5DuPfjwww8zJ3Dp0iXptaqrq2nyvHnzmFMNe7eWdM86m80mncDIkSNp8pQpU2iQv7fWYHZrBSLdqDAvL48GX3rpJfryNWvW0Exm83UfFd1amZmZ0hGkH8+xY8fS4MyZM2lQ2q9GW8IFurUAAK5qqLAAAKqgwgIAqIIKCwCgCiosAIAq4enWSk9Pp0F6lpQQwul00mTpGXYdHR10hNraWum1wn4OYG1tbWVlpS5ot9vpbB0OB315Z2fnhQsXdMGWlhbpzRoMhgHMVBWbzUZnGxERQYMxMTF0VyCbzSYdNj09nR5453K56LDSvZoGk8/no8+A1WpNS0ujyVlZWfTkR4/HQ++rq6uLDuv1emlm2E+rCyQ1NdXtduuC0jdR+sC4XC76wCQmJnZ0dOiCRqPx008/HfB8ryQ8Fba6upoGFy5cSONFRUU02NXVRV++bdu2W2+9VRccsich3nfffSdPntQFp06dSm+WPhZCiN27d//bv/2bLujxeBoaGmiyFu6DdaW6u7vpzQ4bNowGU1JSaMkI5N1336XB22+/nQ6blZXFHFOR6upqesZlfn5+WVkZTT5x4gQNjh8/nt7Xpk2bHnjgAV1w5syZNDMmJia4GQ+Wc+fO0ZMQPR4PvYXhw4fT4Jw5c9555x1d8MCBA/Qs56C6tfoHvyUAAFAFFRYAQBVUWAAAVVBhAQBUQYUFAFAFFRYAQBVDqFp5Fi5c+Oqrr7IuaTA4nU7msAaDZIaBGjz599Le3s5Mvu2221577TVO5qZNm772ta8xJ+B0OuldKLpZ6QidnZ20v1IqMzPz9OnTzGsZjUbmxOx2u9msbxaUroAIRUsvHdbr9XZ3d3NeazabaY9tIAkJCYE2OdOxWCzSrl7+zQZaK+lTRIN+v1/aCyi1c+dO6Z5V1Jw5c7Zv387JNBqN0lIQ1LM9wI9MW1sb81oPPPDAs88+y0w+XVXpdDqtVmvI+mF7e3uZmZqm8e8q7JhlSAjh9/v5w7a3t/drOmHAf2dFMJ8NaVPz0BTUO8tfLq/Xyy/cYcdfhKA+Mq2trf2d0WDj39dn4bcEAACqoMICAKiCCgsAoAoqLACAKqiwAACqoMICAKiCCgsAoAoqLACAKqiwAACqoMICAKjyjwpbX19/Ff1POQEAhr6/V9he0Xu0/CjdiQMA81b4ewAABMBJREFUAPrt7zvTfEt8q6G+4ZXYV3T/9VNPPXXmzBnOQDabjXlqo8lkmjZtWrATDa09e/Yw93Ho6elh7iwVHR2dkJDAnMD48eP5G4ypUFZWJj02kTIajeXl5cxh8/LymFuE5OTkJCcnM4dVobq6uqqqipNpNpuPHj3KHHbUqFHMzV8SEhLy8vKYw6rQ3NxcWlrKTD537hzz33Gzs7NNJhMn0263T5o0iTkBFTRN27lzJzN52LBhzO2K8vLyvjzvpr69tYSmae1au1NzOjRHi9ai/TN6OmMgDzzwgPZFNHbsWOYKREREhHuySjz00EPMFRBCXLp0KdzzDb0DBw7wV+CJJ54I93yV4P8L7qxZs8I9WSUWL17MXIHZs2dXVVbUXqxpamwwCiF+L35vFEYhxO/E7/hPEgAAXJlRCPGkeLJVtHaIjqfEU5oIzYbcAABg/Eh8dE6c6/uHRtG4U3B/KwEAAFdm/Jn4WafotAmbWZjbRNtT4qlwTwkA4AvCuEVsMQvzveJen/DZhO0v4i81oibcswIA+CIw/lj8+IK4sEasEUJcEBd+Kn5qEAM9dQ4AAIQQ5m+Lb1/+h2gR/Yh4JIyzAQD4IsG+BAAAqqDCAgCoggoLAKAKKiwAgCqosAAAqnzObg7XXHMNc6CMjIwBT2YoysjIOHnyJCeTv7HW1SUlJcXhcDCTrVar0smEhdPp5K/AF/UxiIuLa2lp4WSmp6ernkxYZGVlMXfCys3Nvfznv+9eKIQwCAM2JQAAGLjTVZV9uxfitwQAAKqgwgIAqNKvCltTI2prQz0TAIAvmn5V2A0bREqKuPlm8cEHoZ4PAMBVz2D4++4u/aqw/+//CYtF/PnPYt48kZEhfvlL0doqhKitre3o6Oj3nPbv33/x4sWOjo79+/drmnby5MmOjo7m5mav19vY2CiEaGxsrKmpqaura21tvfyqffv2NTU17d+/v7u7u76+vm8Cff9ZV1d36dKlvk6Avte2tbX19PQIIcrKynp7e/sGF0L0nVbUN1RPT8/lcQAABuIfFXbljlnCYGD9X0yM6OoSJpNobxfV1WL5cpGYKP7zP/fu3t1Xv/rH6/W++eabPT09Xq+3tra2ubn57bfffvXVV00m05tvvtnR0fHmm29WVlZ+8MEH27Zt6+rqOnHixLFjxzRNq6ur83q9W7Zs+dvf/rZ27Vqfz/f22283NTUdPHjwD3/4Q1NTkxDizTffPHHixKpVq9555x2fz7d58+aDBw9u3bq1oqLi2LFjly5damtr0zSto6Njz549l8cJwQIDwL+wf3RrBedb3xJr14rubiGE6Dsz9a67xJo1wtj/r878fr/RaPzsH4QQx44dS0pKiomJ8Xq9FouFvkrTNIPB8NmXSBOEECdOnBg5cuRn/6vLg+syAQAG4synpx0Oh8Vi6VeFbWgQKSmip0dERIjUVPGd74hFi0REhIJ5AgBcfS5XWO4Jvf9k3Trh94viYvHooyKsx50DAAxlhp0flAghent7vV6v1+vz+ry9vj69vf5ev9/v9/s1TdP8fiFE37nhfX8I88QBANS4/NtCw2XG/5/BaDabzWZT3/9bzBZL3/+bLVarxWKxmM1mIURUVJTdbjebzf8fLm5x7X7bvtYAAAAASUVORK5CYII=;" vertex="1" parent="lPFeyiHdocXZhXI9Fyas-1">
          <mxGeometry x="274.7" y="70" width="90.6" height="91" as="geometry" />
        </mxCell>
        <mxCell id="wItr3tb0fCN-MO-YChe2-5" value="Camera" style="shape=cube;whiteSpace=wrap;html=1;boundedLbl=1;backgroundOutline=1;darkOpacity=0.05;darkOpacity2=0.1;" vertex="1" parent="lPFeyiHdocXZhXI9Fyas-1">
          <mxGeometry x="400" y="300" width="70" height="60" as="geometry" />
        </mxCell>
        <mxCell id="wItr3tb0fCN-MO-YChe2-6" value="Robot body" style="shape=cube;whiteSpace=wrap;html=1;boundedLbl=1;backgroundOutline=1;darkOpacity=0.05;darkOpacity2=0.1;" vertex="1" parent="lPFeyiHdocXZhXI9Fyas-1">
          <mxGeometry x="360.6" y="360" width="189.4" height="60" as="geometry" />
        </mxCell>
        <mxCell id="wItr3tb0fCN-MO-YChe2-7" value="" style="group" vertex="1" connectable="0" parent="lPFeyiHdocXZhXI9Fyas-1">
          <mxGeometry x="150" y="230" width="30" height="60" as="geometry" />
        </mxCell>
        <mxCell id="wItr3tb0fCN-MO-YChe2-2" value="" style="endArrow=classic;html=1;fillColor=#0050ef;strokeColor=#001DBC;" edge="1" parent="wItr3tb0fCN-MO-YChe2-7">
          <mxGeometry width="50" height="50" relative="1" as="geometry">
            <mxPoint y="40" as="sourcePoint" />
            <mxPoint as="targetPoint" />
          </mxGeometry>
        </mxCell>
        <mxCell id="wItr3tb0fCN-MO-YChe2-3" value="" style="endArrow=classic;html=1;fillColor=#008a00;strokeColor=#005700;" edge="1" parent="wItr3tb0fCN-MO-YChe2-7">
          <mxGeometry width="50" height="50" relative="1" as="geometry">
            <mxPoint y="40" as="sourcePoint" />
            <mxPoint x="30" y="30" as="targetPoint" />
          </mxGeometry>
        </mxCell>
        <mxCell id="wItr3tb0fCN-MO-YChe2-4" value="" style="endArrow=classic;html=1;fillColor=#e51400;strokeColor=#B20000;" edge="1" parent="wItr3tb0fCN-MO-YChe2-7">
          <mxGeometry width="50" height="50" relative="1" as="geometry">
            <mxPoint y="40" as="sourcePoint" />
            <mxPoint x="20" y="60" as="targetPoint" />
          </mxGeometry>
        </mxCell>
        <mxCell id="wItr3tb0fCN-MO-YChe2-10" value="" style="group" vertex="1" connectable="0" parent="lPFeyiHdocXZhXI9Fyas-1">
          <mxGeometry x="160" y="240" width="320" height="110" as="geometry" />
        </mxCell>
        <mxCell id="wItr3tb0fCN-MO-YChe2-14" value="" style="group" vertex="1" connectable="0" parent="wItr3tb0fCN-MO-YChe2-10">
          <mxGeometry x="262" y="13" width="58" height="40" as="geometry" />
        </mxCell>
        <mxCell id="wItr3tb0fCN-MO-YChe2-11" value="" style="endArrow=classic;html=1;fillColor=#0050ef;strokeColor=#001DBC;" edge="1" parent="wItr3tb0fCN-MO-YChe2-14">
          <mxGeometry width="50" height="50" relative="1" as="geometry">
            <mxPoint y="13" as="sourcePoint" />
            <mxPoint x="-22" y="-3" as="targetPoint" />
          </mxGeometry>
        </mxCell>
        <mxCell id="wItr3tb0fCN-MO-YChe2-12" value="" style="endArrow=classic;html=1;fillColor=#008a00;strokeColor=#005700;" edge="1" parent="wItr3tb0fCN-MO-YChe2-14">
          <mxGeometry width="50" height="50" relative="1" as="geometry">
            <mxPoint y="13" as="sourcePoint" />
            <mxPoint y="37" as="targetPoint" />
          </mxGeometry>
        </mxCell>
        <mxCell id="wItr3tb0fCN-MO-YChe2-13" value="" style="endArrow=classic;html=1;fillColor=#e51400;strokeColor=#B20000;" edge="1" parent="wItr3tb0fCN-MO-YChe2-14">
          <mxGeometry width="50" height="50" relative="1" as="geometry">
            <mxPoint y="13" as="sourcePoint" />
            <mxPoint x="18" y="-3" as="targetPoint" />
          </mxGeometry>
        </mxCell>
        <mxCell id="wItr3tb0fCN-MO-YChe2-21" value="camera frame" style="text;html=1;strokeColor=none;fillColor=none;align=center;verticalAlign=middle;whiteSpace=wrap;rounded=0;" vertex="1" parent="wItr3tb0fCN-MO-YChe2-14">
          <mxGeometry x="18" y="17" width="40" height="20" as="geometry" />
        </mxCell>
        <mxCell id="wItr3tb0fCN-MO-YChe2-27" value="" style="curved=1;endArrow=classic;html=1;" edge="1" parent="wItr3tb0fCN-MO-YChe2-10">
          <mxGeometry width="50" height="50" relative="1" as="geometry">
            <mxPoint x="180" y="130" as="sourcePoint" />
            <mxPoint x="240" y="30" as="targetPoint" />
            <Array as="points">
              <mxPoint x="180" y="80" />
              <mxPoint x="180" y="40" />
            </Array>
          </mxGeometry>
        </mxCell>
        <mxCell id="wItr3tb0fCN-MO-YChe2-28" value="T_base_cam" style="edgeLabel;html=1;align=center;verticalAlign=middle;resizable=0;points=[];" vertex="1" connectable="0" parent="wItr3tb0fCN-MO-YChe2-27">
          <mxGeometry x="-0.4421" y="23" relative="1" as="geometry">
            <mxPoint x="-2" y="-31" as="offset" />
          </mxGeometry>
        </mxCell>
        <mxCell id="wItr3tb0fCN-MO-YChe2-15" value="" style="group" vertex="1" connectable="0" parent="lPFeyiHdocXZhXI9Fyas-1">
          <mxGeometry x="330" y="340" width="30" height="60" as="geometry" />
        </mxCell>
        <mxCell id="wItr3tb0fCN-MO-YChe2-16" value="" style="endArrow=classic;html=1;fillColor=#0050ef;strokeColor=#001DBC;" edge="1" parent="wItr3tb0fCN-MO-YChe2-15">
          <mxGeometry width="50" height="50" relative="1" as="geometry">
            <mxPoint y="40" as="sourcePoint" />
            <mxPoint as="targetPoint" />
          </mxGeometry>
        </mxCell>
        <mxCell id="wItr3tb0fCN-MO-YChe2-17" value="" style="endArrow=classic;html=1;fillColor=#008a00;strokeColor=#005700;" edge="1" parent="wItr3tb0fCN-MO-YChe2-15">
          <mxGeometry width="50" height="50" relative="1" as="geometry">
            <mxPoint y="40" as="sourcePoint" />
            <mxPoint x="-30" y="40" as="targetPoint" />
          </mxGeometry>
        </mxCell>
        <mxCell id="wItr3tb0fCN-MO-YChe2-18" value="" style="endArrow=classic;html=1;fillColor=#e51400;strokeColor=#B20000;" edge="1" parent="wItr3tb0fCN-MO-YChe2-15">
          <mxGeometry width="50" height="50" relative="1" as="geometry">
            <mxPoint y="40" as="sourcePoint" />
            <mxPoint x="-10" y="10" as="targetPoint" />
          </mxGeometry>
        </mxCell>
        <mxCell id="wItr3tb0fCN-MO-YChe2-20" value="base_link" style="text;html=1;strokeColor=none;fillColor=none;align=center;verticalAlign=middle;whiteSpace=wrap;rounded=0;" vertex="1" parent="wItr3tb0fCN-MO-YChe2-15">
          <mxGeometry x="-20" y="40" width="40" height="20" as="geometry" />
        </mxCell>
        <mxCell id="wItr3tb0fCN-MO-YChe2-19" value="Reference frame" style="text;html=1;strokeColor=none;fillColor=none;align=center;verticalAlign=middle;whiteSpace=wrap;rounded=0;" vertex="1" parent="lPFeyiHdocXZhXI9Fyas-1">
          <mxGeometry x="90" y="270" width="40" height="20" as="geometry" />
        </mxCell>
        <mxCell id="wItr3tb0fCN-MO-YChe2-22" value="" style="group" vertex="1" connectable="0" parent="lPFeyiHdocXZhXI9Fyas-1">
          <mxGeometry x="160" y="240" width="30" height="60" as="geometry" />
        </mxCell>
        <mxCell id="wItr3tb0fCN-MO-YChe2-24" value="" style="endArrow=classic;html=1;fillColor=#008a00;strokeColor=#005700;" edge="1" parent="wItr3tb0fCN-MO-YChe2-22">
          <mxGeometry width="50" height="50" relative="1" as="geometry">
            <mxPoint x="160" y="-40" as="sourcePoint" />
            <mxPoint x="130" y="-40" as="targetPoint" />
          </mxGeometry>
        </mxCell>
        <mxCell id="wItr3tb0fCN-MO-YChe2-23" value="" style="endArrow=classic;html=1;fillColor=#0050ef;strokeColor=#001DBC;" edge="1" parent="lPFeyiHdocXZhXI9Fyas-1">
          <mxGeometry width="50" height="50" relative="1" as="geometry">
            <mxPoint x="320" y="200" as="sourcePoint" />
            <mxPoint x="300" y="220" as="targetPoint" />
          </mxGeometry>
        </mxCell>
        <mxCell id="wItr3tb0fCN-MO-YChe2-25" value="" style="endArrow=classic;html=1;fillColor=#e51400;strokeColor=#B20000;entryX=0.5;entryY=1;entryDx=0;entryDy=0;" edge="1" parent="lPFeyiHdocXZhXI9Fyas-1" target="wItr3tb0fCN-MO-YChe2-1">
          <mxGeometry width="50" height="50" relative="1" as="geometry">
            <mxPoint x="320" y="200" as="sourcePoint" />
            <mxPoint x="320" y="180" as="targetPoint" />
          </mxGeometry>
        </mxCell>
        <mxCell id="wItr3tb0fCN-MO-YChe2-26" value="board frame" style="text;html=1;strokeColor=none;fillColor=none;align=center;verticalAlign=middle;whiteSpace=wrap;rounded=0;" vertex="1" parent="lPFeyiHdocXZhXI9Fyas-1">
          <mxGeometry x="330" y="190" width="40" height="20" as="geometry" />
        </mxCell>
        <mxCell id="wItr3tb0fCN-MO-YChe2-33" value="" style="curved=1;endArrow=classic;html=1;" edge="1" parent="lPFeyiHdocXZhXI9Fyas-1">
          <mxGeometry width="50" height="50" relative="1" as="geometry">
            <mxPoint x="150" y="290" as="sourcePoint" />
            <mxPoint x="300" y="390" as="targetPoint" />
            <Array as="points">
              <mxPoint x="160" y="360" />
              <mxPoint x="210" y="410" />
            </Array>
          </mxGeometry>
        </mxCell>
        <mxCell id="wItr3tb0fCN-MO-YChe2-34" value="T_ref_base" style="edgeLabel;html=1;align=center;verticalAlign=middle;resizable=0;points=[];" vertex="1" connectable="0" parent="wItr3tb0fCN-MO-YChe2-33">
          <mxGeometry x="0.271" y="-4" relative="1" as="geometry">
            <mxPoint y="1" as="offset" />
          </mxGeometry>
        </mxCell>
        <mxCell id="wItr3tb0fCN-MO-YChe2-35" value="" style="curved=1;endArrow=classic;html=1;" edge="1" parent="lPFeyiHdocXZhXI9Fyas-1">
          <mxGeometry width="50" height="50" relative="1" as="geometry">
            <mxPoint x="390" y="190" as="sourcePoint" />
            <mxPoint x="470" y="250" as="targetPoint" />
            <Array as="points">
              <mxPoint x="460" y="160" />
              <mxPoint x="540" y="180" />
            </Array>
          </mxGeometry>
        </mxCell>
        <mxCell id="wItr3tb0fCN-MO-YChe2-36" value="T_board_cam" style="edgeLabel;html=1;align=center;verticalAlign=middle;resizable=0;points=[];" vertex="1" connectable="0" parent="wItr3tb0fCN-MO-YChe2-35">
          <mxGeometry x="0.0413" y="-9" relative="1" as="geometry">
            <mxPoint as="offset" />
          </mxGeometry>
        </mxCell>
        <mxCell id="wItr3tb0fCN-MO-YChe2-37" value="" style="curved=1;endArrow=classic;html=1;fillColor=#0050ef;strokeColor=#001DBC;" edge="1" parent="lPFeyiHdocXZhXI9Fyas-1">
          <mxGeometry width="50" height="50" relative="1" as="geometry">
            <mxPoint x="130" y="220" as="sourcePoint" />
            <mxPoint x="280" y="200" as="targetPoint" />
            <Array as="points">
              <mxPoint x="120" y="180" />
              <mxPoint x="150" y="170" />
              <mxPoint x="190" y="180" />
            </Array>
          </mxGeometry>
        </mxCell>
        <mxCell id="wItr3tb0fCN-MO-YChe2-38" value="T_ref_board" style="edgeLabel;html=1;align=center;verticalAlign=middle;resizable=0;points=[];" vertex="1" connectable="0" parent="wItr3tb0fCN-MO-YChe2-37">
          <mxGeometry x="0.2387" y="-2" relative="1" as="geometry">
            <mxPoint as="offset" />
          </mxGeometry>
        </mxCell>
      </root>
    </mxGraphModel>
  </diagram>
</mxfile>
